<?xml version="1.0" encoding="UTF-8" standalone="no"?>
<!-- Created with Inkscape (http://www.inkscape.org/) -->

<svg
   width="60.136284mm"
   height="60.582035mm"
   viewBox="0 0 60.136284 60.582035"
   version="1.1"
   id="svg1"
   xmlns="http://www.w3.org/2000/svg"
   xmlns:svg="http://www.w3.org/2000/svg">

  <g
     id="layer1"
     transform="translate(-77.521669,-93.28391)">
    <path
       d="m 103.21332,153.86594 q -5.551669,0 -10.292871,-1.62092 -4.741203,-1.66145 -8.185666,-4.7412 -3.40394,-3.07976 -5.308526,-7.49678 -1.904585,-4.45754 -1.904585,-10.04972 0,-7.41573 2.715047,-13.98047 2.755571,-6.56474 7.739912,-11.71118 4.781725,-4.943816 11.670652,-7.942525 6.929447,-3.039232 14.709887,-3.039232 4.70068,0 9.52292,1.134647 4.82225,1.134646 7.21312,2.634001 l 3.03923,-2.22877 h 3.52551 l -4.49807,20.990959 h -3.56603 q -0.81046,-9.19874 -4.90329,-13.98046 -4.05231,-4.822252 -10.45496,-4.822252 -4.70068,0 -8.67195,2.796093 -3.97126,2.796099 -7.051014,8.590899 -2.512432,4.78172 -3.849694,11.10333 -1.296739,6.28108 -1.296739,11.79222 0,8.10462 3.93074,12.60268 3.930737,4.49806 10.536007,4.49806 5.7948,0 10.73862,-3.24184 4.94382,-3.24185 9.52293,-9.36084 l 3.12028,2.1072 q -1.98564,3.07976 -4.74121,6.07847 -2.75557,2.95818 -6.28108,5.14643 -3.6876,2.30982 -7.61834,3.52551 -3.89022,1.21569 -9.36083,1.21569 z"
       id="text1"
       style="font-style:italic;font-weight:bold;font-size:82.9913px;font-family:Georgia;-inkscape-font-specification:'Georgia Bold Italic';fill:#ffffff;stroke-width:1.11149"
       aria-label="C" />
    <path
       d="m 109.19062,144.22709 q -2.48128,0 -4.60034,-0.72446 -2.11905,-0.74258 -3.65853,-2.11906 -1.521376,-1.37648 -2.37262,-3.35064 -0.851244,-1.99227 -0.851244,-4.49167 0,-3.31442 1.213475,-6.24849 1.231589,-2.93408 3.459309,-5.23425 2.13717,-2.20961 5.21613,-3.54986 3.09708,-1.35837 6.5745,-1.35837 2.10095,0 4.25622,0.50712 2.15528,0.50713 3.22386,1.17726 l 1.35837,-0.99614 h 1.57571 l -2.01039,9.38179 h -1.59381 q -0.36224,-4.11132 -2.1915,-6.24849 -1.81116,-2.15528 -4.67279,-2.15528 -2.10094,0 -3.87588,1.2497 -1.77493,1.2497 -3.15141,3.83966 -1.12292,2.13716 -1.7206,4.96257 -0.57957,2.80729 -0.57957,5.27046 0,3.62232 1.75682,5.6327 1.75683,2.01039 4.70901,2.01039 2.58996,0 4.79957,-1.44893 2.20961,-1.44893 4.25622,-4.18377 l 1.39459,0.9418 q -0.88747,1.37648 -2.11906,2.71674 -1.23158,1.32214 -2.80729,2.30016 -1.64815,1.03236 -3.40497,1.57571 -1.73872,0.54335 -4.18378,0.54335 z"
       id="text2"
       style="font-style:italic;font-weight:bold;font-size:37.0925px;font-family:Georgia;-inkscape-font-specification:'Georgia Bold Italic';fill:#ffffff;stroke-width:0.496771"
       aria-label="C" />
  </g>
</svg>
